<svg xmlns="http://www.w3.org/2000/svg" viewBox="0 0 106 106"><defs><style>.cls-1{fill:#3C485E;}</style></defs><title>Asset 10</title><g id="Layer_2" data-name="Layer 2"><g id="Layer_1-2" data-name="Layer 1"><path class="cls-1" d="M0,0V106H106V0ZM16,79.54a6.25,6.25,0,0,0,1.6,3.93,19.3,19.3,0,0,0,1.6,1.68c-4.15-1.68-5.68-5.31-5.82-9-.15-4.15,1.67-7.93,5.53-7.93a4.09,4.09,0,0,1,4.07,4C23.26,77.8,15.92,77.44,16,79.54Zm59.94,5.79H47.51v-1h1.18c7.55,0,8.29-.82,8.29-4V29.14c0-3.26-1.33-4-8.29-4H47.51v0H45.82c-4.66,0-5.82.73-5.82,4V72.92c0,6.77-5.75,11.28-11.28,12.66A11.17,11.17,0,0,0,30.18,84c2.67-4.08,2.25-6.74,2.25-12.49V29.05c0-3.2-1.31-3.93-8-3.93h-2v-1h42.3V80.22c0,3.33,1.18,4.15,9,4.15h2.14ZM74.08,57.72H72.16a27,27,0,0,0,3.7-.64c4.6-1,12.14-5,12.14-16.17,0-10.59-5.2-14.35-12.7-16.12-1.66-.4-3.14-.68-3.14-.68h5.11c7,0,19.32,3.48,19.32,16.88C96.59,52.16,85.34,57.72,74.08,57.72Z"/></g></g></svg>