<svg xmlns="http://www.w3.org/2000/svg" viewBox="0 0 356 106"><defs><style>.cls-1{fill:#3C485E;}.cls-2{fill:#E3E3E3;}.cls-3{fill:none;stroke:#E3E3E3;stroke-miterlimit:10;}</style></defs><title>Asset 11</title><g id="Layer_2" data-name="Layer 2"><g id="Layer_1-2" data-name="Layer 1"><rect class="cls-1" width="356" height="106"/><path class="cls-2" d="M29.1,22v1h2c6.69,0,8,.72,8,3.93V69.43c0,5.75.41,8.41-2.26,12.49a11,11,0,0,1-1.45,1.56c5.53-1.39,11.27-5.9,11.27-12.66V27c0-3.28,1.17-4,5.83-4h2.4V22ZM25.54,66.16c-3.86,0-5.68,3.78-5.53,7.93.14,3.64,1.67,7.28,5.82,9a19.3,19.3,0,0,1-1.6-1.68,6.25,6.25,0,0,1-1.6-3.92c-.08-2.11,7.27-1.75,7-7.28A4.1,4.1,0,0,0,25.54,66.16Z"/><path class="cls-2" d="M79,36.8a18.51,18.51,0,0,1,8.51,7.63c2,3.7,2.82,9.11,2.82,15.92s-1,12.58-3.41,16.73C82.7,83.16,79,83.67,79,83.67,88,82,97.05,73.15,97.05,60.2S88,38.51,79,36.8ZM54.41,60.2c0,13,9,21.84,18.14,23.54,0,0-6.1-3-8.29-7.33-2-4-3-9.55-3-15.84,0-7,.88-12.56,3-16.36a19,19,0,0,1,8.36-7.48C63.44,38.43,54.41,47.32,54.41,60.2Z"/><path class="cls-2" d="M204.92,22h-5.11s1.49.29,3.14.68c7.5,1.77,12.71,5.54,12.71,16.12,0,11.14-7.55,15.19-12.14,16.17a27.22,27.22,0,0,1-3.71.64h1.93c11.25,0,22.5-5.55,22.5-16.73C224.24,25.48,212,22,204.92,22ZM192.41,78.11V22H175.16v1h1.19c7,0,8.29.74,8.29,4V78.26c0,3.18-.74,4-8.29,4h-1.19v1h28.43v-1h-2.15C193.6,82.26,192.41,81.44,192.41,78.11Z"/><path class="cls-2" d="M100.94,60.22s3.14-.09,4.21-.14c4.92-.19,5.83-3.2,7.17-10.34h.6v21.2h-.6c-1.14-8.46-2.08-10-7.2-10.4C104.07,60.47,100.94,60.22,100.94,60.22Zm-.2-22.94h19.77l2,13.66-.54.14C117,39.88,114.51,38,111.12,38l-6.69-.44m2.26,45.12c2.27-.14,7.35-.35,7.35-.35,1.67,0,5.94-4.6,9.87-13.06l.6.06L122.24,83.2h-21"/><path class="cls-2" d="M230,60.22s3.14-.09,4.2-.14c4.93-.19,5.84-3.2,7.17-10.34H242v21.2h-.61c-1.13-8.46-2.07-10-7.19-10.4C233.13,60.47,230,60.22,230,60.22Zm-.2-22.94h19.77l2,13.66-.54.14C246.1,39.88,243.57,38,240.17,38l-6.68-.44m2.26,45.12c2.26-.14,7.35-.35,7.35-.35,1.67,0,5.94-4.6,9.87-13.06l.6.06L251.3,83.2h-21"/><path class="cls-2" d="M256.5,83.2v-.73M263.63,42c-1.87-2.4-2.93-4-7.6-4v-.73h10.73l26,37V44.15c0-4.4,0-5.73-7.39-6.07L283.89,38v-.73h17.4V38c-7.6.27-7.54,1.74-7.54,6.54V84h-.6L264.63,43.35m5.4-9.67-.73-.33c1.8-5.2,4.39-6.6,7-6.6a12.82,12.82,0,0,1,4.8,1.07c2.47.87,4.33,1.66,5.73,1.6s2.33-.8,3.06-3.07l.74.27c-1.73,5.26-4.33,6.73-6.87,6.73a16.56,16.56,0,0,1-5.46-1.4,17.51,17.51,0,0,0-4.87-1.46C272,30.49,270.83,31.28,270,33.68Z"/><path class="cls-2" d="M334.3,82.33c-3.63-.29-3.92-1-5.11-4.44L314.54,36.21l-3.41,7.11.44,1.26,6.22,18.06-12.29.42,12.52.39,4.73,14c1.34,3.92,1.78,5-5.77,5h-1.56v.74H336v-.74Z"/><line class="cls-3" x1="151.69" y1="22.23" x2="151.69" y2="83.11"/></g></g></svg>