<svg xmlns="http://www.w3.org/2000/svg" viewBox="0 0 316.01 62"><defs><style>.cls-1{fill:#231f20;}</style></defs><title>Asset 8</title><g id="Layer_2" data-name="Layer 2"><g id="Layer_1-2" data-name="Layer 1"><path class="cls-1" d="M9.1,0V1h2c6.69,0,8,.73,8,3.93V47.44c0,5.74.41,8.4-2.26,12.48a11,11,0,0,1-1.45,1.56c5.53-1.38,11.28-5.9,11.28-12.66V5c0-3.27,1.16-4,5.82-4h2.4V0ZM5.54,44.16C1.68,44.16-.14,48,0,52.09.15,55.73,1.68,59.37,5.83,61a19.3,19.3,0,0,1-1.6-1.68,6.25,6.25,0,0,1-1.6-3.92c-.07-2.11,7.27-1.75,7-7.28A4.1,4.1,0,0,0,5.54,44.16Z"/><path class="cls-1" d="M59,14.81a18.5,18.5,0,0,1,8.52,7.62c2,3.7,2.81,9.11,2.81,15.92s-1,12.58-3.41,16.73C62.7,61.17,59,61.67,59,61.67,68,60,77.06,51.15,77.06,38.2S68,16.51,59,14.81ZM34.41,38.2c0,12.95,9,21.84,18.14,23.54,0,0-6.09-3-8.29-7.33-2-4-3-9.55-3-15.84,0-7,.87-12.56,3-16.36a19,19,0,0,1,8.36-7.48C43.45,16.43,34.41,25.32,34.41,38.2Z"/><path class="cls-1" d="M184.92,0h-5.1s1.48.29,3.14.68c7.49,1.78,12.7,5.54,12.7,16.12,0,11.14-7.54,15.19-12.14,16.17a27.32,27.32,0,0,1-3.7.64h1.92c11.25,0,22.51-5.55,22.51-16.73C204.25,3.48,192,0,184.92,0ZM172.41,56.11V0H155.17V1h1.18c7,0,8.29.74,8.29,4V56.26c0,3.19-.74,4-8.29,4h-1.18v1h28.42v-1h-2.15C173.6,60.26,172.41,59.45,172.41,56.11Z"/><path class="cls-1" d="M80.94,38.22l4.21-.13c4.92-.2,5.83-3.21,7.17-10.34h.6V48.94h-.6c-1.14-8.46-2.07-10-7.2-10.4Zm-.2-22.93h19.77l2,13.66-.53.13C97,17.89,94.51,16,91.12,16l-6.69-.45m2.26,45.12C89,60.56,94,60.34,94,60.34c1.67,0,5.94-4.6,9.87-13.06l.6.06L102.24,61.2h-21"/><path class="cls-1" d="M210,38.22l4.21-.13c4.92-.2,5.83-3.21,7.17-10.34h.6V48.94h-.6c-1.14-8.46-2.07-10-7.2-10.4Zm-.2-22.93h19.77l2,13.66-.54.13C226.1,17.89,223.57,16,220.18,16l-6.69-.45m2.26,45.12c2.27-.13,7.35-.35,7.35-.35,1.67,0,5.94-4.6,9.87-13.06l.6.06L231.3,61.2h-21"/><path class="cls-1" d="M236.5,61.2v-.73M243.63,20c-1.87-2.4-2.93-4-7.6-4v-.73h10.74l26,37V22.15c0-4.4,0-5.73-7.4-6.06L263.89,16v-.73h17.4V16c-7.6.26-7.54,1.73-7.54,6.53V62h-.6L244.63,21.35m5.4-9.66-.73-.34c1.8-5.19,4.39-6.6,7-6.6a12.82,12.82,0,0,1,4.8,1.07c2.47.87,4.34,1.67,5.73,1.6s2.34-.8,3.07-3.06l.73.26c-1.73,5.27-4.33,6.73-6.86,6.73a16.32,16.32,0,0,1-5.47-1.4,17.51,17.51,0,0,0-4.87-1.46C252,8.49,250.83,9.29,250,11.69Z"/><path class="cls-1" d="M314.3,60.33c-3.62-.29-3.92-1-5.1-4.44L294.54,14.21l-3.41,7.11.45,1.26,6.21,18.06-12.29.42,12.52.4,4.73,14c1.34,3.92,1.78,5-5.77,5h-1.55v.74H316v-.74Z"/></g></g></svg>