<svg id="Layer_3" data-name="Layer 3" xmlns="http://www.w3.org/2000/svg" viewBox="0 0 634.42635 103.27869"><defs><style>.cls-1{fill:#777;}.cls-2{fill:#fff;}</style></defs><title>joepenalogo</title><rect class="cls-1" width="634.42635" height="103.27869"/><path class="cls-2" d="M382.354,505.96729V461.41992c0-8.59961-1.06836-9.97558-8.45849-9.97558v-1.80616h24.03955v1.80616c-7.39014,0-8.4585,1.376-8.4585,9.97558v43.60156c0,12.29688-8.63623,15.39356-15.58105,15.39356-5.25293,0-13.08789-2.83789-13.08789-8.16992a3.07524,3.07524,0,0,1,6.14306,0c0,2.58008,2.315,5.58984,6.94483,5.58984C379.14844,517.835,382.354,514.22266,382.354,505.96729Z" transform="translate(-304.72119 -432.01639)"/><path class="cls-2" d="M454.46924,502.69922c-11.93067,0-21.72461-9.02979-21.72461-20.12354,0-10.92187,9.79394-20.03759,21.72461-20.03759s21.72461,9.11572,21.72461,20.03759C476.19385,493.66943,466.3999,502.69922,454.46924,502.69922Zm0-36.89356c-10.59522,0-14.42383,9.374-14.42383,16.77,0,7.48194,3.82861,16.76953,14.42383,16.76953,10.50635,0,14.42383-9.28759,14.42383-16.76953C468.89307,475.17969,464.97559,465.80566,454.46924,465.80566Z" transform="translate(-304.72119 -432.01639)"/><path class="cls-2" d="M543.41162,492.55127l.44483-1.71973h1.78076l-.71241,10.40576H511.626v-1.71972c5.96533,0,7.03369-1.4624,7.03369-10.062V475.6958c0-8.6001-1.06836-9.97607-7.03369-9.97607V464h31.16211l.7124,10.31982h-1.86963l-.44531-1.72021c-.9795-3.95557-2.13672-5.50391-10.23926-5.50391H524.981v12.814h.53418c8.90381,0,9.61621-1.03174,9.61621-6.79395h1.78027v16.77h-1.78027c0-5.67627-.7124-6.79394-9.61621-6.79394H524.981v4.98779c0,8.59961,1.06884,9.97559,7.03418,9.97559h1.06836C541.18555,498.05518,542.34277,496.59326,543.41162,492.55127Z" transform="translate(-304.72119 -432.01639)"/><path class="cls-2" d="M670.0127,464.17188c0,7.998-6.76661,14.44775-19.14258,14.44775h-7.92481v10.75c0,8.59961,1.06836,10.06152,8.459,10.06152v1.80615H627.36475v-1.80615c7.39013,0,8.45849-1.46191,8.45849-10.06152V461.41992c0-8.59961-1.06836-9.97558-8.45849-9.97558v-1.80616h23.50537C663.24609,449.63818,670.0127,456.17383,670.0127,464.17188Zm-7.92481,0c0-6.1919-3.56152-11.35157-11.30762-11.35157h-7.835v22.70362h7.835C658.52637,475.52393,662.08789,470.44971,662.08789,464.17188Z" transform="translate(-304.72119 -432.01639)"/><path class="cls-2" d="M737.05176,492.55127l.44531-1.71973h1.78027l-.71191,10.40576H705.2666v-1.71972c5.96485,0,7.0332-1.4624,7.0332-10.062V475.6958c0-8.6001-1.06835-9.97607-7.0332-9.97607V464h31.16211l.71192,10.31982h-1.86915l-.44531-1.72021c-.97949-3.95557-2.13672-5.50391-10.23926-5.50391h-5.96582v12.814h.53418c8.9043,0,9.61621-1.03174,9.61621-6.79395h1.78028v16.77h-1.78028c0-5.67627-.71191-6.79394-9.61621-6.79394h-.53418v4.98779c0,8.59961,1.06934,9.97559,7.03418,9.97559h1.06836C734.82617,498.05518,735.9834,496.59326,737.05176,492.55127Z" transform="translate(-304.72119 -432.01639)"/><path class="cls-2" d="M774.26465,465.71973V464h10.95117l23.68359,27.17529V475.6958c0-8.6001-1.06836-9.97607-7.03418-9.97607V464h17.36231v1.71973c-5.96582,0-7.03418,1.376-7.03418,9.97607v26.91748H810.502l-25.90918-30.01367v16.856c0,8.59961,1.06836,10.062,7.03418,10.062v1.71972h-17.3623v-1.71972c5.96582,0,7.03418-1.4624,7.03418-10.062V475.6958C781.29883,467.0957,780.23047,465.71973,774.26465,465.71973Zm26.62207-8.16993c-3.11621,0-8.28027-4.72949-10.86231-4.72949-1.69238,0-3.20605,1.71973-3.8291,3.86963h-1.335c0-4.90185,2.582-8.3418,5.69824-8.3418,3.56055,0,8.0127,4.73,11.21778,4.73,2.04785,0,3.20508-1.54786,3.8291-4.12793h1.42383C807.0293,454.36816,804.626,457.5498,800.88672,457.5498Z" transform="translate(-304.72119 -432.01639)"/><path class="cls-2" d="M859.291,492.89551c-2.22657,5.07373-2.22657,6.53564,4.80761,6.53564v1.80615H847.27148v-1.80615c5.43067,0,6.23243-1.03174,9.16993-7.48193l13.08789-29.41113h1.24707l13.08789,29.41113c2.93847,6.45019,4.00683,7.48193,8.72558,7.48193v1.80615H872.64648v-1.80615c6.41016,0,7.03321-1.46191,4.80762-6.53564l-1.78125-3.95606H861.07129Zm9.08105-20.2959-5.876,13.1582H874.249Z" transform="translate(-304.72119 -432.01639)"/><line class="cls-2" x1="283.27881" y1="79.98361" x2="283.27881" y2="19.98361"/></svg>